<svg class="logo" width="268px" height="268px" viewBox="0 0 268 268" version="1.1" xmlns="http://www.w3.org/2000/svg" xmlns:xlink="http://www.w3.org/1999/xlink">
    <g stroke="none" stroke-width="1" fill="none" fill-rule="evenodd">
        <path d="M130.0611,164.1384 L56.6023,206.7612 L86.1287,138.6005 L130.0611,164.1384 Z M140.656,45.7352 L210.2466,206.7612 L87.4383,135.3859 L126.1917,45.7352 C128.6121,43.3541 131.0135,42.3611 133.3947,42.7588 C135.8151,42.3219 138.2368,43.3148 140.656,45.7352 L140.656,45.7352 Z"></path>
        <path d="M223.6995,43.8899 C248.582622,68.773022 261.025374,98.775638 261.025374,133.897748 C261.025374,169.059147 248.582622,199.082003 223.6995,223.965125 C198.817569,248.847056 168.794713,261.289808 133.633314,261.289808 C98.5112036,261.289808 68.507397,248.847056 43.624275,223.965125 C18.7423436,199.082003 6.299592,169.059147 6.299592,133.897748 C6.299592,98.775638 18.7423436,68.773022 43.624275,43.8899 C68.507397,19.006778 98.5112036,6.565217 133.633314,6.565217 C168.794713,6.565217 198.817569,19.006778 223.6995,43.8899 L223.6995,43.8899 Z" stroke-width="12" stroke-linecap="round" stroke-linejoin="round"></path>
    </g>
</svg>
