<?xml version="1.0" encoding="UTF-8"?>
<svg class="logo full" width="188px" height="67px" viewBox="0 0 188 67" version="1.1" xmlns="http://www.w3.org/2000/svg" xmlns:xlink="http://www.w3.org/1999/xlink">
    <g fill-rule="evenodd">
        <path d="M186.464,36.248 C186.656001,35.9919987 186.863999,35.8240004 187.088,35.744 C187.312001,35.6639996 187.511999,35.6719995 187.688,35.768 C187.864001,35.8640005 187.96,36.0399987 187.976,36.296 C187.992,36.5520013 187.872001,36.8719981 187.616,37.256 C187.455999,37.5120013 187.024004,38.0799956 186.32,38.96 C185.615997,39.8400044 184.736005,40.8639942 183.68,42.032 C182.623995,43.2000058 181.456007,44.4319935 180.176,45.728 C178.895994,47.0240065 177.592007,48.2079946 176.264,49.28 C174.935994,50.3520054 173.640006,51.2399965 172.376,51.944 C171.111994,52.6480035 169.968005,53 168.944,53 C168.079996,52.9359997 167.312004,52.6800022 166.64,52.232 C166.063997,51.8479981 165.536003,51.2640039 165.056,50.48 C164.575998,49.6959961 164.336,48.5520075 164.336,47.048 C164.336,45.6079928 164.623997,44.1600073 165.2,42.704 C165.776003,41.2479927 166.519996,39.8560066 167.432,38.528 C168.344005,37.1999934 169.359995,35.9600058 170.48,34.808 C171.600006,33.6559942 172.695995,32.6480043 173.768,31.784 C174.840006,30.9199957 175.839996,30.2480024 176.768,29.768 C177.696005,29.2879976 178.431997,29.048 178.976,29.048 C179.296002,29.048 179.647998,29.1199993 180.032,29.264 C180.416002,29.4080007 180.775998,29.6719981 181.112,30.056 C181.448002,30.4400019 181.735999,30.9839965 181.976,31.688 C182.216001,32.3920035 182.336,33.3199942 182.336,34.472 C182.336,35.2400038 182.080003,36.0799954 181.568,36.992 C181.055998,37.9040046 180.400004,38.8159954 179.6,39.728 C178.799996,40.6400046 177.912005,41.5279957 176.936,42.392 C175.959995,43.2560043 175.000005,44.0239966 174.056,44.696 C173.111995,45.3680034 172.248004,45.903998 171.464,46.304 C170.679996,46.704002 170.080002,46.904 169.664,46.904 C169.375999,47.512003 169.184001,48.0559976 169.088,48.536 C169.024,48.9520021 169.063999,49.3199984 169.208,49.64 C169.352001,49.9600016 169.743997,50.12 170.384,50.12 C171.184004,50.12 172.271993,49.6960042 173.648,48.848 C175.024007,47.9999958 176.487992,46.9120066 178.04,45.584 C179.592008,44.2559934 181.119993,42.7680082 182.624,41.12 C184.128008,39.4719918 185.407995,37.848008 186.464,36.248 Z M178.496,35 C178.303999,35 178.032002,35.1439986 177.68,35.432 C177.327998,35.7200014 176.952002,36.1039976 176.552,36.584 C176.151998,37.0640024 175.720002,37.607997 175.256,38.216 C174.791998,38.824003 174.336002,39.431997 173.888,40.04 C172.831995,41.5440075 171.696006,43.2239907 170.48,45.08 C172.112008,44.1199952 173.519994,43.0560058 174.704,41.888 C175.888006,40.7199942 176.831997,39.6240051 177.536,38.6 C178.240004,37.5759949 178.671999,36.7200034 178.832,36.032 C178.992001,35.3439966 178.880002,35 178.496,35 Z"></path>
        <path d="M154.256,53 C153.327995,53 152.552003,52.4400056 151.928,51.32 C151.303997,50.1999944 150.992,48.7280091 150.992,46.904 C150.992,46.3919974 151.095999,45.8080033 151.304,45.152 C151.512001,44.4959967 151.783998,43.8080036 152.12,43.088 C152.456002,42.3679964 152.831998,41.6240038 153.248,40.856 C153.664002,40.0879962 154.095998,39.3360037 154.544,38.6 C155.600005,36.9039915 156.783994,35.1280093 158.096,33.272 C157.839999,33.272 157.280004,33.671996 156.416,34.472 C155.551996,35.272004 154.552006,36.2799939 153.416,37.496 C152.279994,38.7120061 151.088006,40.0559926 149.84,41.528 C148.591994,43.0000074 147.448005,44.4159932 146.408,45.776 C145.367995,47.1360068 144.504004,48.3359948 143.816,49.376 C143.127997,50.4160052 142.784,51.1279981 142.784,51.512 C142.784,52.4080045 142.616002,52.8879997 142.28,52.952 C141.943998,53.0160003 141.568002,52.8240022 141.152,52.376 C140.735998,51.9279978 140.360002,51.2800042 140.024,50.432 C139.687998,49.5839958 139.52,48.6800048 139.52,47.72 C139.52,47.0799968 139.751998,46.2800048 140.216,45.32 C140.680002,44.3599952 141.263997,43.3200056 141.968,42.2 C142.672004,41.0799944 143.439996,39.9120061 144.272,38.696 C145.104004,37.4799939 145.871997,36.2960058 146.576,35.144 C147.280004,33.9919942 147.863998,32.8880053 148.328,31.832 C148.792002,30.7759947 149.024,29.848004 149.024,29.048 C149.024,28.6319979 149.207998,28.4319999 149.576,28.448 C149.944002,28.4640001 150.343998,28.6799979 150.776,29.096 C151.208002,29.5120021 151.607998,30.1359958 151.976,30.968 C152.344002,31.8000042 152.528,32.8079941 152.528,33.992 C152.528,34.600003 152.440001,35.1359977 152.264,35.6 C152.087999,36.0640023 151.904001,36.4719982 151.712,36.824 C151.455999,37.2080019 151.184002,37.5759982 150.896,37.928 C152.528008,36.2639917 154.047993,34.7920064 155.456,33.512 C156.064003,32.9679973 156.663997,32.4240027 157.256,31.88 C157.848003,31.3359973 158.407997,30.8560021 158.936,30.44 C159.464003,30.0239979 159.935998,29.6880013 160.352,29.432 C160.768002,29.1759987 161.071999,29.048 161.264,29.048 C161.680002,29.048 162.055998,29.1839986 162.392,29.456 C162.728002,29.7280014 163.007999,30.0959977 163.232,30.56 C163.456001,31.0240023 163.631999,31.5439971 163.76,32.12 C163.888001,32.6960029 163.952,33.2719971 163.952,33.848 C163.952,34.2320019 163.680003,34.9119951 163.136,35.888 C162.591997,36.8640049 161.920004,37.9759938 161.12,39.224 C160.319996,40.4720062 159.480005,41.7599934 158.6,43.088 C157.719996,44.4160066 156.944003,45.6319945 156.272,46.736 C155.599997,47.8400055 155.112002,48.7519964 154.808,49.472 C154.503999,50.1920036 154.543998,50.552 154.928,50.552 C155.632004,50.552 156.567994,50.0880046 157.736,49.16 C158.904006,48.2319954 160.151993,47.0560071 161.48,45.632 C162.808007,44.2079929 164.143993,42.6320086 165.488,40.904 C166.832007,39.1759914 168.031995,37.512008 169.088,35.912 C169.248001,35.6559987 169.447999,35.4880004 169.688,35.408 C169.928001,35.3279996 170.127999,35.3359995 170.288,35.432 C170.448001,35.5280005 170.536,35.7039987 170.552,35.96 C170.568,36.2160013 170.448001,36.5359981 170.192,36.92 C170.031999,37.1760013 169.632003,37.7519955 168.992,38.648 C168.351997,39.5440045 167.576005,40.5839941 166.664,41.768 C165.751996,42.9520059 164.744006,44.2079934 163.64,45.536 C162.535995,46.8640066 161.416006,48.0799945 160.28,49.184 C159.143994,50.2880055 158.056005,51.1999964 157.016,51.92 C155.975995,52.6400036 155.056004,53 154.256,53 L154.256,53 Z"></path>
        <path d="M145.472,36.008 C145.664001,35.7519987 145.871999,35.5920003 146.096,35.528 C146.320001,35.4639997 146.519999,35.4799995 146.696,35.576 C146.872001,35.6720005 146.968,35.8479987 146.984,36.104 C147,36.3600013 146.880001,36.6799981 146.624,37.064 C146.463999,37.3200013 146.056003,37.8879956 145.4,38.768 C144.743997,39.6480044 143.952005,40.6719942 143.024,41.84 C142.095995,43.0080058 141.072006,44.2479934 139.952,45.56 C138.831995,46.8720066 137.712006,48.0719946 136.592,49.16 C135.471995,50.2480054 134.400005,51.1439965 133.376,51.848 C132.351995,52.5520035 131.472004,52.904 130.736,52.904 C129.807995,52.904 129.056003,52.6880022 128.48,52.256 C127.903997,51.8239978 127.456002,51.2800033 127.136,50.624 C126.815999,49.9679967 126.608001,49.2560038 126.512,48.488 C126.416,47.7199962 126.4,47.0160032 126.464,46.376 C126.528,45.5119957 126.847997,44.5120057 127.424,43.376 C128.000003,42.2399943 128.671996,41.0160066 129.44,39.704 C130.208004,38.3919934 130.999996,37.0240071 131.816,35.6 C132.632004,34.1759929 133.327997,32.7440072 133.904,31.304 C134.000001,31.0799989 134.064,30.8400013 134.096,30.584 C134.128,30.3279987 134.176,30.096001 134.24,29.888 C134.304,29.679999 134.399999,29.5120006 134.528,29.384 C134.656001,29.2559994 134.863999,29.192 135.152,29.192 C135.440002,29.192 135.775998,29.3119988 136.16,29.552 C136.544002,29.7920012 136.895999,30.1439977 137.216,30.608 C137.536002,31.0720023 137.791999,31.6559965 137.984,32.36 C138.176001,33.0640035 138.224001,33.8799954 138.128,34.808 C138.064,35.4480032 137.760003,36.271995 137.216,37.28 C136.671997,38.288005 136.040004,39.3679942 135.32,40.52 C134.599997,41.6720058 133.872004,42.8319942 133.136,44 C132.399996,45.1680058 131.824002,46.2319952 131.408,47.192 C130.991998,48.1520048 130.808,48.927997 130.856,49.52 C130.904,50.112003 131.343996,50.408 132.176,50.408 C132.528002,50.408 133.223995,49.9600045 134.264,49.064 C135.304005,48.1679955 136.471994,47.024007 137.768,45.632 C139.064007,44.239993 140.407993,42.6960085 141.8,41 C143.192007,39.3039915 144.415995,37.6400082 145.472,36.008 L145.472,36.008 Z"></path>
        <path d="M140.624,27.8 C140.335999,27.8 140.024002,27.6800012 139.688,27.44 C139.351998,27.1999988 139.040002,26.8400024 138.752,26.36 C138.463999,25.8799976 138.232001,25.2960034 138.056,24.608 C137.879999,23.9199966 137.84,23.1440043 137.936,22.28 C138,21.4159957 138.175999,20.680003 138.464,20.072 C138.752002,19.463997 139.071998,18.9840018 139.424,18.632 C139.776002,18.2799982 140.143998,18.0240008 140.528,17.864 C140.912002,17.7039992 141.247999,17.624 141.536,17.624 C141.824002,17.624 142.215998,17.7119991 142.712,17.888 C143.208003,18.0640009 143.695998,18.2959986 144.176,18.584 C144.656003,18.8720014 145.063998,19.1999982 145.4,19.568 C145.736002,19.9360018 145.888,20.3279979 145.856,20.744 C145.824,21.1600021 145.712001,21.5039986 145.52,21.776 C145.327999,22.0480014 145.088002,22.3279986 144.8,22.616 C144.511999,22.9040014 144.192002,23.247998 143.84,23.648 C143.487998,24.048002 143.120002,24.5679968 142.736,25.208 C142.351998,25.8480032 142.064001,26.3439982 141.872,26.696 C141.679999,27.0480018 141.520001,27.3039992 141.392,27.464 C141.263999,27.6240008 141.152001,27.7199998 141.056,27.752 C140.96,27.7840002 140.816001,27.8 140.624,27.8 L140.624,27.8 Z"></path>
        <path d="M143.456,25.352 C143.584001,25.8000022 143.584001,26.127999 143.456,26.336 C143.327999,26.544001 143.184001,26.6799997 143.024,26.744 C142.799999,26.8400005 142.544002,26.8720002 142.256,26.84 C142.256,26.4879982 142.072002,26.0720024 141.704,25.592 C141.335998,25.1119976 140.792004,24.6480022 140.072,24.2 C139.351996,23.7519978 138.480005,23.3760015 137.456,23.072 C136.431995,22.7679985 135.248007,22.616 133.904,22.616 L132.392,22.616 C131.895998,22.616 131.408002,22.6319998 130.928,22.664 C129.935995,24.456009 128.832006,26.3839897 127.616,28.448 C126.399994,30.5120103 125.184006,32.5759897 123.968,34.64 C122.751994,36.7040103 121.600006,38.6879905 120.512,40.592 C119.423995,42.4960095 118.536004,44.1839926 117.848,45.656 C117.159997,47.1280074 116.728001,48.3039956 116.552,49.184 C116.375999,50.0640044 116.575997,50.504 117.152,50.504 C117.504002,50.504 118.215995,50.0560045 119.288,49.16 C120.360005,48.2639955 121.567993,47.120007 122.912,45.728 C124.256007,44.335993 125.639993,42.8000084 127.064,41.12 C128.488007,39.4399916 129.727995,37.800008 130.784,36.2 C130.944001,35.9439987 131.143999,35.7760004 131.384,35.696 C131.624001,35.6159996 131.823999,35.6239995 131.984,35.72 C132.144001,35.8160005 132.232,35.9919987 132.248,36.248 C132.264,36.5040013 132.144001,36.8239981 131.888,37.208 C131.727999,37.4640013 131.320003,38.0319956 130.664,38.912 C130.007997,39.7920044 129.200005,40.8159942 128.24,41.984 C127.279995,43.1520058 126.224006,44.3839935 125.072,45.68 C123.919994,46.9760065 122.776006,48.1679946 121.64,49.256 C120.503994,50.3440054 119.416005,51.2399965 118.376,51.944 C117.335995,52.6480035 116.448004,53 115.712,53 C114.815996,53 114.096003,52.8160018 113.552,52.448 C113.007997,52.0799982 112.584002,51.6240027 112.28,51.08 C111.975999,50.5359973 111.776001,49.9360033 111.68,49.28 C111.584,48.6239967 111.536,48.0080029 111.536,47.432 C111.536,46.8879973 111.711998,46.1280049 112.064,45.152 C112.416002,44.1759951 112.895997,43.0560063 113.504,41.792 C114.112003,40.5279937 114.823996,39.1440075 115.64,37.64 C116.456004,36.1359925 117.311996,34.5760081 118.208,32.96 C119.104005,31.3439919 120.023995,29.6960084 120.968,28.016 C121.912005,26.3359916 122.831996,24.696008 123.728,23.096 C122.895996,23.1600003 122.032005,23.192 121.136,23.192 L118.352,23.192 C117.007993,23.192 115.872005,23.0720012 114.944,22.832 C114.015995,22.5919988 113.240003,22.2800019 112.616,21.896 C111.991997,21.5119981 111.504002,21.0800024 111.152,20.6 C110.799998,20.1199976 110.528001,19.6400024 110.336,19.16 C110.047999,18.3279958 110.039999,17.816001 110.312,17.624 C110.584001,17.431999 110.927998,17.5119982 111.344,17.864 C112.048004,18.4400029 112.991994,18.9599977 114.176,19.424 C115.360006,19.8880023 116.783992,20.12 118.448,20.12 C119.888007,20.12 121.223994,20.0800004 122.456,20 C123.688006,19.9199996 124.719996,19.8320005 125.552,19.736 C126.768006,17.4639886 127.751996,15.4640086 128.504,13.736 C129.256004,12.0079914 129.632,10.744004 129.632,9.944 C129.632,9.59199824 129.871998,9.43199984 130.352,9.464 C130.832002,9.49600016 131.367997,9.72799784 131.96,10.16 C132.552003,10.5920022 133.087998,11.2159959 133.568,12.032 C134.048002,12.8480041 134.288,13.8639939 134.288,15.08 C134.288,15.4960021 134.144002,16.0879962 133.856,16.856 C133.567999,17.6240038 133.152003,18.5199949 132.608,19.544 L134,19.544 C135.504008,19.544 136.807995,19.7279982 137.912,20.096 C139.016006,20.4640018 139.951996,20.9279972 140.72,21.488 C141.488004,22.0480028 142.087998,22.6719966 142.52,23.36 C142.952002,24.0480034 143.263999,24.7119968 143.456,25.352 L143.456,25.352 Z"></path>
        <path d="M116.144,35.912 C116.336001,35.6559987 116.543999,35.4880004 116.768,35.408 C116.992001,35.3279996 117.191999,35.3359995 117.368,35.432 C117.544001,35.5280005 117.64,35.7039987 117.656,35.96 C117.672,36.2160013 117.552001,36.5359981 117.296,36.92 C117.103999,37.2400016 116.776002,37.7199968 116.312,38.36 C115.847998,39.0000032 115.208004,39.6799964 114.392,40.4 C113.575996,41.1200036 112.528006,41.8159966 111.248,42.488 C109.967994,43.1600034 108.416009,43.6719982 106.592,44.024 L106.592,44.36 C106.56,46.152009 106.288003,47.6079944 105.776,48.728 C105.263998,49.8480056 104.632004,50.7199969 103.88,51.344 C103.127996,51.9680031 102.344004,52.3999988 101.528,52.64 C100.711996,52.8800012 99.9840033,53 99.3440001,53 C99.0559986,53 98.6560026,52.9280007 98.1440001,52.784 C97.6319975,52.6399993 97.1120027,52.4080016 96.5840001,52.088 C96.0559974,51.7679984 95.600002,51.3360027 95.2160001,50.792 C94.8319982,50.2479973 94.6400001,49.5920038 94.6400001,48.824 C94.6400001,48.3119974 94.743999,47.8480021 94.9520001,47.432 C95.1600011,47.0159979 95.4399983,46.6240018 95.7920001,46.256 C96.1440018,45.8879982 96.5439978,45.5680014 96.9920001,45.296 C97.4400023,45.0239986 97.9039977,44.7760011 98.3840001,44.552 C99.4720055,44.0399974 100.719993,43.6240016 102.128,43.304 C102.288001,42.2159946 102.416,41.0800059 102.512,39.896 C102.576,38.8719949 102.608,37.7440062 102.608,36.512 C102.608,35.2799938 102.496001,34.0560061 102.272,32.84 C102.24,32.7759997 102.224,32.7120003 102.224,32.648 L102.224,32.168 C101.743998,32.968004 101.200003,33.8319954 100.592,34.76 C99.983997,35.6880046 99.3600033,36.5999955 98.7200001,37.496 C98.495999,37.8160016 98.2640013,37.9999998 98.0240001,38.048 C97.7839989,38.0960002 97.5920008,38.0640006 97.4480001,37.952 C97.3039994,37.8399994 97.2240002,37.6640012 97.2080001,37.424 C97.192,37.1839988 97.2799991,36.9200014 97.4720001,36.632 C97.8880022,36.023997 98.3599974,35.320004 98.8880001,34.52 C99.4160027,33.719996 99.9359975,32.8880043 100.448,32.024 C100.960003,31.1599957 101.431998,30.2960043 101.864,29.432 C102.296002,28.5679957 102.607999,27.7840035 102.8,27.08 C102.864,26.7919986 102.959999,26.448002 103.088,26.048 C103.216001,25.647998 103.351999,25.2800017 103.496,24.944 C103.640001,24.6079983 103.807999,24.3600008 104,24.2 C104.192001,24.0399992 104.399999,24.0399992 104.624,24.2 C104.912002,24.4240011 105.295998,24.7199982 105.776,25.088 C106.256002,25.4560018 106.727998,25.8879975 107.192,26.384 C107.656002,26.8800025 108.055998,27.431997 108.392,28.04 C108.728002,28.648003 108.896,29.2879966 108.896,29.96 C108.896,30.6000032 108.784001,31.1519977 108.56,31.616 C108.335999,32.0800023 108.088001,32.6959962 107.816,33.464 C107.543999,34.2320038 107.288001,35.2959932 107.048,36.656 C106.807999,38.0160068 106.656,39.9279877 106.592,42.392 C108.67201,41.9439978 110.479992,41.2080051 112.016,40.184 C113.552008,39.1599949 114.927994,37.7360091 116.144,35.912 Z M96.2240001,49.112 C96.2240001,49.6560027 96.4559978,50.0399989 96.9200001,50.264 C97.3840024,50.4880011 97.927997,50.4720013 98.5520001,50.216 C99.1760032,49.9599987 99.8239967,49.4240041 100.496,48.608 C101.168003,47.7919959 101.695998,46.6000078 102.08,45.032 C100.959994,45.3520016 99.9840042,45.7039981 99.1520001,46.088 C98.4159964,46.4400018 97.7440031,46.8639975 97.1360001,47.36 C96.527997,47.8560025 96.2240001,48.4399966 96.2240001,49.112 Z"></path>
        <path d="M97.3760001,36.008 C97.568001,35.7519987 97.7759989,35.5920003 98.0000001,35.528 C98.2240012,35.4639997 98.4239992,35.4799995 98.6000001,35.576 C98.7760009,35.6720005 98.872,35.8479987 98.8880001,36.104 C98.9040001,36.3600013 98.7840013,36.6799981 98.5280001,37.064 C98.3679993,37.3200013 97.9600033,37.8879956 97.3040001,38.768 C96.6479968,39.6480044 95.8560047,40.6719942 94.9280001,41.84 C93.9999954,43.0080058 92.9760057,44.2479934 91.8560001,45.56 C90.7359945,46.8720066 89.6160057,48.0719946 88.4960001,49.16 C87.3759945,50.2480054 86.3040052,51.1439965 85.2800001,51.848 C84.2559949,52.5520035 83.3760037,52.904 82.6400001,52.904 C81.7119954,52.904 80.9600029,52.6880022 80.3840001,52.256 C79.8079972,51.8239978 79.3600017,51.2800033 79.0400001,50.624 C78.7199985,49.9679967 78.5120005,49.2560038 78.4160001,48.488 C78.3199996,47.7199962 78.3039997,47.0160032 78.3680001,46.376 C78.4320004,45.5119957 78.7519972,44.5120057 79.3280001,43.376 C79.9040029,42.2399943 80.5759962,41.0160066 81.3440001,39.704 C82.1120039,38.3919934 82.903996,37.0240071 83.7200001,35.6 C84.5360041,34.1759929 85.2319972,32.7440072 85.8080001,31.304 C85.9040005,31.0799989 85.9679999,30.8400013 86.0000001,30.584 C86.0320002,30.3279987 86.0799997,30.096001 86.1440001,29.888 C86.2080004,29.679999 86.3039994,29.5120006 86.4320001,29.384 C86.5600007,29.2559994 86.7679986,29.192 87.0560001,29.192 C87.3440015,29.192 87.6799981,29.3119988 88.0640001,29.552 C88.448002,29.7920012 88.7999985,30.1439977 89.1200001,30.608 C89.4400017,31.0720023 89.6959991,31.6559965 89.8880001,32.36 C90.080001,33.0640035 90.1280005,33.8799954 90.0320001,34.808 C89.9679997,35.4480032 89.6640028,36.271995 89.1200001,37.28 C88.5759973,38.288005 87.9440037,39.3679942 87.2240001,40.52 C86.5039965,41.6720058 85.7760037,42.8319942 85.0400001,44 C84.3039964,45.1680058 83.7280021,46.2319952 83.3120001,47.192 C82.895998,48.1520048 82.7119998,48.927997 82.7600001,49.52 C82.8080003,50.112003 83.2479959,50.408 84.0800001,50.408 C84.4320018,50.408 85.1279949,49.9600045 86.1680001,49.064 C87.2080053,48.1679955 88.3759936,47.024007 89.6720001,45.632 C90.9680065,44.239993 92.3119931,42.6960085 93.7040001,41 C95.096007,39.3039915 96.3199948,37.6400082 97.3760001,36.008 L97.3760001,36.008 Z"></path>
        <path d="M92.5280001,27.8 C92.2399986,27.8 91.9280017,27.6800012 91.5920001,27.44 C91.2559984,27.1999988 90.9440015,26.8400024 90.6560001,26.36 C90.3679986,25.8799976 90.1360009,25.2960034 89.9600001,24.608 C89.7839992,23.9199966 89.7439996,23.1440043 89.8400001,22.28 C89.9040004,21.4159957 90.0799986,20.680003 90.3680001,20.072 C90.6560015,19.463997 90.9759983,18.9840018 91.3280001,18.632 C91.6800018,18.2799982 92.0479981,18.0240008 92.4320001,17.864 C92.816002,17.7039992 93.1519986,17.624 93.4400001,17.624 C93.7280015,17.624 94.1199976,17.7119991 94.6160001,17.888 C95.1120025,18.0640009 95.5999977,18.2959986 96.0800001,18.584 C96.5600025,18.8720014 96.9679984,19.1999982 97.3040001,19.568 C97.6400017,19.9360018 97.7920002,20.3279979 97.7600001,20.744 C97.7279999,21.1600021 97.616001,21.5039986 97.4240001,21.776 C97.2319991,22.0480014 96.9920015,22.3279986 96.7040001,22.616 C96.4159986,22.9040014 96.0960018,23.247998 95.7440001,23.648 C95.3919983,24.048002 95.024002,24.5679968 94.6400001,25.208 C94.2559981,25.8480032 93.968001,26.3439982 93.7760001,26.696 C93.5839991,27.0480018 93.4240007,27.3039992 93.2960001,27.464 C93.1679994,27.6240008 93.0560005,27.7199998 92.9600001,27.752 C92.8639996,27.7840002 92.720001,27.8 92.5280001,27.8 L92.5280001,27.8 Z"></path>
        <path d="M82.832,63.032 C83.0560012,62.6479981 83.2959988,62.551999 83.552,62.744 C83.6800007,62.8400005 83.7759997,62.9679992 83.84,63.128 C83.5519986,63.7680032 83.1200029,64.3439974 82.544,64.856 C82.0639976,65.3040022 81.4160041,65.6959983 80.6,66.032 C79.783996,66.3680017 78.7520063,66.536 77.504,66.536 C76.2559938,66.536 74.936007,66.2480029 73.544,65.672 C72.1519931,65.0959971 70.8720059,64.2320058 69.704,63.08 C68.5359942,61.9279942 67.5760038,60.4800087 66.824,58.736 C66.0719963,56.9919913 65.696,54.9520117 65.696,52.616 C65.696,50.9199915 65.9279977,49.2160086 66.392,47.504 C66.8560024,45.7919914 67.4239967,44.1520078 68.096,42.584 C68.7680034,41.0159922 69.4799963,39.5760066 70.232,38.264 C70.9840038,36.9519934 71.6479972,35.8640043 72.224,35 C71.5199965,35.3200016 70.5920058,35.6399984 69.44,35.96 C68.2879943,36.2800016 67.0240069,36.44 65.648,36.44 C65.2959983,36.44 64.9120021,36.3760006 64.496,36.248 C64.079998,36.1199994 63.680002,35.8400022 63.296,35.408 C62.9119981,34.9759978 62.5920013,34.360004 62.336,33.56 C62.0799988,32.759996 61.952,31.7040066 61.952,30.392 C61.952,28.5039906 62.2639969,26.7760078 62.888,25.208 C63.5120032,23.6399922 64.2879954,22.2880057 65.216,21.152 C66.1440047,20.0159943 67.1279948,19.1280032 68.168,18.488 C69.2080052,17.8479968 70.1439959,17.528 70.976,17.528 C71.8720045,17.528 72.6399968,17.7999973 73.28,18.344 C73.9200032,18.8880027 74.24,19.655995 74.24,20.648 C74.24,21.1280024 74.144001,21.6799969 73.952,22.304 C73.7599991,22.9280031 73.5040016,23.5919965 73.184,24.296 C72.8639984,25.0000035 72.504002,25.7119964 72.104,26.432 C71.703998,27.1520036 71.2960021,27.8479966 70.88,28.52 C69.8879951,30.120008 68.7840061,31.7839914 67.568,33.512 C68.752006,32.903997 69.8559949,32.3280027 70.88,31.784 C71.7440044,31.3359978 72.575996,30.9040021 73.376,30.488 C74.176004,30.0719979 74.7039988,29.7840008 74.96,29.624 C75.2800016,29.431999 75.5999984,29.232001 75.92,29.024 C76.2400016,28.815999 76.607998,28.8719984 77.024,29.192 C77.216001,29.3520008 77.5519976,29.6399979 78.032,30.056 C78.5120024,30.4720021 78.9439981,30.9519973 79.328,31.496 C79.712002,32.0400027 79.9599995,32.6239969 80.072,33.248 C80.1840006,33.8720031 79.9680028,34.487997 79.424,35.096 C78.8799973,35.7360032 78.1200049,36.7279933 77.144,38.072 C76.1679952,39.4160067 75.2080048,40.9759911 74.264,42.752 C73.3199953,44.5280089 72.5040035,46.4479897 71.816,48.512 C71.1279966,50.5760103 70.784,52.6479896 70.784,54.728 C70.784,56.8080104 71.0399975,58.5199933 71.552,59.864 C72.0640026,61.2080067 72.6879964,62.2639962 73.424,63.032 C74.1600037,63.8000038 74.9599957,64.3359985 75.824,64.64 C76.6880044,64.9440015 77.4719965,65.096 78.176,65.096 C79.6160072,65.096 80.6879965,64.8640023 81.392,64.4 C82.0960036,63.9359977 82.5759988,63.4800022 82.832,63.032 Z M65.6,30.2 C65.6,30.6480022 65.6399996,31.0239985 65.72,31.328 C65.8000004,31.6320015 65.9039994,31.8959989 66.032,32.12 C66.1600007,32.3760013 66.3039992,32.599999 66.464,32.792 C67.1680036,31.5119936 67.8559967,30.2960058 68.528,29.144 C69.2000034,27.9919942 69.7519979,26.9680045 70.184,26.072 C70.6160022,25.1759955 70.8959994,24.4640026 71.024,23.936 C71.1520007,23.4079974 71.0080021,23.144 70.592,23.144 C70.175998,23.144 69.6880028,23.3999974 69.128,23.912 C68.5679972,24.4240026 68.0240027,25.0479963 67.496,25.784 C66.9679974,26.5200037 66.5200019,27.2959959 66.152,28.112 C65.7839982,28.9280041 65.6,29.6239971 65.6,30.2 Z"></path>
        <path d="M49.472,53 C48.7039962,53 48.0320029,52.7760022 47.456,52.328 C46.8799971,51.8799978 46.4160018,51.3200034 46.064,50.648 C45.7119983,49.9759966 45.4480009,49.240004 45.272,48.44 C45.0959991,47.639996 45.008,46.8880035 45.008,46.184 C45.008,45.8319982 45.1039991,45.3840027 45.296,44.84 C45.488001,44.2959973 45.7519983,43.6880034 46.088,43.016 C46.4240017,42.3439966 46.791998,41.6480036 47.192,40.928 C47.592002,40.2079964 48.0159978,39.4800037 48.464,38.744 C49.4880051,37.0799917 50.6399936,35.2880096 51.92,33.368 C48.9439851,36.0880136 46.2880117,38.6639878 43.952,41.096 C42.9599951,42.1200051 41.9920047,43.1679946 41.048,44.24 C40.1039953,45.3120054 39.2560038,46.343995 38.504,47.336 C37.7519963,48.328005 37.1520023,49.2399958 36.704,50.072 C36.2559978,50.9040042 36.032,51.6079971 36.032,52.184 C36.032,52.6640024 35.8160022,52.9119999 35.384,52.928 C34.9519979,52.9440001 34.4880025,52.7840017 33.992,52.448 C33.4959975,52.1119983 33.0320022,51.640003 32.6,51.032 C32.1679979,50.423997 31.952,49.720004 31.952,48.92 C31.952,48.311997 32.2159974,47.4240058 32.744,46.256 C33.2720027,45.0879942 33.9679957,43.7360077 34.832,42.2 C35.6960043,40.6639923 36.6799945,39.000009 37.784,37.208 C38.8880055,35.415991 40.0239942,33.5920093 41.192,31.736 C42.3600059,29.8799907 43.4959945,28.048009 44.6,26.24 C45.7040055,24.431991 46.6879957,22.7440078 47.552,21.176 C48.4160043,19.6079922 49.1119974,18.2160061 49.64,17 C50.1680027,15.7839939 50.432,14.8400034 50.432,14.168 C50.432,13.9439989 50.6239981,13.8879994 51.008,14 C51.3920019,14.1120006 51.8239976,14.3839978 52.304,14.816 C52.7840024,15.2480022 53.2159981,15.8319963 53.6,16.568 C53.9840019,17.3040037 54.176,18.167995 54.176,19.16 C54.176,19.6720026 54.0000018,20.3599957 53.648,21.224 C53.2959983,22.0880043 52.8320029,23.0639946 52.256,24.152 C51.6799971,25.2400054 51.0240037,26.383994 50.288,27.584 C49.5519963,28.784006 48.8000039,29.9759941 48.032,31.16 C46.2399911,33.9440139 44.2080114,36.9199842 41.936,40.088 C44.1120109,38.0399898 46.0959911,36.216008 47.888,34.616 C48.6560039,33.9439966 49.4239962,33.2800033 50.192,32.624 C50.9600039,31.9679967 51.6799967,31.3840026 52.352,30.872 C53.0240034,30.3599974 53.6159975,29.9440016 54.128,29.624 C54.6400026,29.3039984 55.0239987,29.144 55.28,29.144 C55.7600024,29.144 56.1679983,29.2959985 56.504,29.6 C56.8400017,29.9040015 57.111999,30.3039975 57.32,30.8 C57.5280011,31.2960025 57.6799995,31.839997 57.776,32.432 C57.8720005,33.024003 57.92,33.6079971 57.92,34.184 C57.92,34.5680019 57.6400028,35.2399952 57.08,36.2 C56.5199972,37.1600048 55.8560039,38.2479939 55.088,39.464 C54.3199962,40.6800061 53.5280041,41.9359935 52.712,43.232 C51.8959959,44.5280065 51.2320026,45.7119946 50.72,46.784 C50.2079975,47.8560054 49.9200003,48.7439965 49.856,49.448 C49.7919997,50.1520035 50.1439962,50.504 50.912,50.504 C51.2640018,50.504 51.9519949,50.0560045 52.976,49.16 C54.0000051,48.2639955 55.1599935,47.120007 56.456,45.728 C57.7520065,44.335993 59.0959931,42.8000084 60.488,41.12 C61.880007,39.4399916 63.1039947,37.800008 64.16,36.2 C64.352001,35.9439987 64.5599989,35.7760004 64.784,35.696 C65.0080011,35.6159996 65.1999992,35.6239995 65.36,35.72 C65.5200008,35.8160005 65.6079999,35.9919987 65.624,36.248 C65.6400001,36.5040013 65.5200013,36.8239981 65.264,37.208 C65.1039992,37.4640013 64.7040032,38.0319956 64.064,38.912 C63.4239968,39.7920044 62.6400047,40.8159942 61.712,41.984 C60.7839954,43.1520058 59.7600056,44.3839935 58.64,45.68 C57.5199944,46.9760065 56.4000056,48.1679946 55.28,49.256 C54.1599944,50.3440054 53.0960051,51.2399965 52.088,51.944 C51.079995,52.6480035 50.2080037,53 49.472,53 L49.472,53 Z"></path>
        <path d="M38.624,36.392 C38.816001,36.1039986 39.0479986,35.9200004 39.32,35.84 C39.5920014,35.7599996 39.8159991,35.7759994 39.992,35.888 C40.1680009,36.0000006 40.2639999,36.1999986 40.28,36.488 C40.2960001,36.7760014 40.1600014,37.1279979 39.872,37.544 C38.3039922,40.936017 36.224013,43.9759866 33.632,46.664 C32.5119944,47.8160058 31.2400071,48.9359946 29.816,50.024 C28.3919929,51.1120054 26.7920089,52.0799958 25.016,52.928 C23.2399911,53.7760042 21.2720108,54.4639974 19.112,54.992 C16.9519892,55.5200026 14.6080126,55.784 12.08,55.784 C10.287991,55.784 8.61600776,55.480003 7.064,54.872 C5.51199224,54.263997 4.19200544,53.3280063 3.104,52.064 C2.01599456,50.7999937 1.22400248,49.1920098 0.728,47.24 C0.23199752,45.2879902 0.17599808,42.9520136 0.56,40.232 C0.94400192,37.5759867 1.935992,34.6160163 3.536,31.352 C3.82400144,30.7759971 4.19199776,30.1040038 4.64,29.336 C5.08800224,28.5679962 5.4719984,27.9280026 5.792,27.416 C6.33600272,26.3919949 7.007996,25.3520053 7.808,24.296 C8.57600384,23.1759944 9.4399952,22.0560056 10.4,20.936 C11.3600048,19.8159944 12.3679947,18.6960056 13.424,17.576 C14.4800053,16.4879946 15.5519946,15.4640048 16.64,14.504 C17.7280054,13.5439952 18.8319944,12.6960037 19.952,11.96 C22.2560115,10.3279918 24.4319898,9.12800384 26.48,8.36 C28.5280102,7.59199616 30.447991,7.208 32.24,7.208 C33.8080078,7.208 35.0799951,7.50399704 36.056,8.096 C37.0320049,8.68800296 37.7759974,9.41599568 38.288,10.28 C38.5440013,9.60799664 38.775999,8.88000392 38.984,8.096 C39.192001,7.31199608 39.3759992,6.520004 39.536,5.72 C39.0239974,4.98399632 38.7040006,4.32000296 38.576,3.728 C38.4479994,3.13599704 38.384,2.69600144 38.384,2.408 C38.384,1.95999776 38.5359985,1.58400152 38.84,1.28 C39.1440015,0.97599848 39.4559984,0.83999984 39.776,0.872 L39.92,0.872 C40.2720018,0.872 40.6879976,1.02399848 41.168,1.328 C41.6480024,1.63200152 42.1199977,2.0639972 42.584,2.624 C43.0480023,3.1840028 43.479998,3.83199632 43.88,4.568 C44.280002,5.30400368 44.5599992,6.10399568 44.72,6.968 C44.7520002,7.16000096 44.768,7.38399872 44.768,7.64 L44.768,8.432 C44.768,8.73600152 44.7520002,9.09599792 44.72,9.512 C44.6239995,10.4080045 44.4240015,11.2799958 44.12,12.128 C43.8159985,12.9760042 43.4720019,13.8079959 43.088,14.624 C42.7039981,15.4400041 42.2960022,16.247996 41.864,17.048 C41.4319978,17.848004 41.0560016,18.6319962 40.736,19.4 C40.3519981,20.2640043 40.2079995,21.0479965 40.304,21.752 C40.4000005,22.4560035 40.5199993,23.0559975 40.664,23.552 C40.8080007,24.0480025 40.8640002,24.4319986 40.832,24.704 C40.7999998,24.9760014 40.4640032,25.112 39.824,25.112 C39.4399981,25.112 39.0640018,24.8720024 38.696,24.392 C38.3279982,23.9119976 37.9840016,23.368003 37.664,22.76 C37.3119982,22.0559965 36.9600018,21.2560045 36.608,20.36 C36.4799994,20.0079982 36.3680005,19.6400019 36.272,19.256 C36.1759995,18.9359984 36.0960003,18.576002 36.032,18.176 C35.9679997,17.775998 35.936,17.3680021 35.936,16.952 C35.936,16.759999 35.9519998,16.568001 35.984,16.376 C36.0160002,16.183999 36.0479998,15.9760011 36.08,15.752 C36.0159997,15.1119968 35.7360025,14.6160018 35.24,14.264 C34.7439975,13.9119982 34.2240027,13.736 33.68,13.736 C32.6239947,13.736 31.3440075,14.0639967 29.84,14.72 C28.3359925,15.3760033 26.5440104,16.3439936 24.464,17.624 C23.9199973,17.9760018 23.2400041,18.4639969 22.424,19.088 C21.6079959,19.7120031 20.6400056,20.519995 19.52,21.512 C17.8559917,22.9840074 16.3840064,24.5359918 15.104,26.168 C14.8479987,26.4880016 14.6080011,26.8079984 14.384,27.128 C14.1599989,27.4480016 13.9200013,27.7679984 13.664,28.088 C13.5679995,28.2480008 13.4480007,28.4399989 13.304,28.664 C13.1599993,28.8880011 13.0000009,29.1359986 12.824,29.408 C12.6479991,29.6800014 12.4720009,29.9439987 12.296,30.2 C12.1199991,30.4560013 11.9680006,30.6959989 11.84,30.92 C11.231997,31.912005 10.624003,32.9599945 10.016,34.064 C9.40799696,35.1680055 8.84000264,36.2959942 8.312,37.448 C7.78399736,38.6000058 7.320002,39.7439943 6.92,40.88 C6.519998,42.0160057 6.2400008,43.079995 6.08,44.072 L5.984,45.128 C5.79199904,46.6640077 5.80799888,47.9679946 6.032,49.04 C6.25600112,50.1120054 6.6479972,50.9999965 7.208,51.704 C7.7680028,52.4080035 8.46399584,52.9199984 9.296,53.24 C10.1280042,53.5600016 11.0559949,53.72 12.08,53.72 C14.480012,53.72 16.6879899,53.4720025 18.704,52.976 C20.7200101,52.4799975 22.5759915,51.8240041 24.272,51.008 C25.9680085,50.1919959 27.5039931,49.2720051 28.88,48.248 C30.2560069,47.2239949 31.4719947,46.1680054 32.528,45.08 C34.9920123,42.5519874 37.023992,39.6560163 38.624,36.392 L38.624,36.392 Z"></path>
    </g>
</svg>
