<?xml version="1.0" encoding="UTF-8"?>
<svg class="logo" width="51px" height="51px" viewBox="0 0 51 51" version="1.1" xmlns="http://www.w3.org/2000/svg" xmlns:xlink="http://www.w3.org/1999/xlink">
    <g fill-rule="evenodd">
        <path d="M22.8855767,47.1312437 C22.7493058,46.9333567 22.7308688,46.61211 22.8302647,46.1675015 C23.009384,45.3662822 23.4490338,44.2955778 24.1492273,42.9553564 C24.8494209,41.6151349 25.7531455,40.0782735 26.8604283,38.3447262 C27.9677111,36.6111789 29.1401105,34.8048205 30.3776619,32.9255969 C31.6152132,31.0463734 32.852746,29.167178 34.0902974,27.2879544 C35.3278487,25.4087308 36.4513982,23.6533584 37.4609796,22.0217844 C37.9494867,21.9926492 38.4461282,21.9780818 38.9509189,21.9780818 L40.4897086,21.9780818 C41.8575285,21.9780818 43.0624946,22.1164721 44.1046431,22.393257 C45.1467916,22.6700419 46.0342329,23.0123759 46.7669936,23.4202694 C47.4997543,23.8281629 48.0533874,24.2506177 48.4279095,24.6876464 C48.8024316,25.1246751 48.9896898,25.5034277 48.9896898,25.8239154 C49.2827941,25.8530507 49.5433273,25.8239159 49.7712973,25.7365101 C49.934133,25.6782396 50.080683,25.5544167 50.2109515,25.3650376 C50.3412201,25.1756584 50.3412201,24.8770266 50.2109515,24.4691331 C50.0155487,23.8864281 49.6980238,23.2818808 49.2583674,22.6554729 C48.818711,22.0290651 48.2080863,21.4609362 47.4264749,20.9510694 C46.6448635,20.4412025 45.6922889,20.0187477 44.5687226,19.6836924 C43.4451562,19.348637 42.1180651,19.1811118 40.5874095,19.1811118 L39.170746,19.1811118 C39.2780192,19.0004646 39.3804015,18.824193 39.4778931,18.652297 C40.387071,18.4229739 41.2663172,18.0222298 41.4522943,17.6478769 C41.7779657,16.948631 42.1606239,16.2348281 42.6002803,15.5064468 C43.0399367,14.7780656 43.4551615,14.0424116 43.8459672,13.2994627 C44.2367729,12.5565139 44.5868644,11.7990088 44.8962523,11.0269246 C45.2056401,10.2548405 45.4091817,9.46091691 45.5068831,8.64512993 C45.5394502,8.26637169 45.5557336,7.93860505 45.5557336,7.66182018 L45.5557336,6.94072637 C45.5557336,6.70764437 45.5394502,6.50370069 45.5068831,6.32888919 C45.3440474,5.54223746 45.0590892,4.81386715 44.6519999,4.14375642 C44.2449107,3.47364569 43.8052609,2.88366574 43.3330373,2.37379888 C42.8608138,1.86393201 42.3804556,1.47061205 41.8919485,1.19382718 C41.4034414,0.917042313 40.9800749,0.778651955 40.6218364,0.778651955 L40.475285,0.778651955 C40.1496136,0.749516706 39.8320887,0.873339658 39.5227009,1.15012453 C39.213313,1.42690939 39.0586214,1.76924344 39.0586214,2.17713693 C39.0586214,2.43935417 39.1237547,2.83995784 39.2540233,3.37895995 C39.3842919,3.91796206 39.7099584,4.52250942 40.2310327,5.19262015 C40.068197,5.92100138 39.8809387,6.64208798 39.6692523,7.35590159 C39.4575659,8.0697152 39.2214576,8.73253218 38.9609205,9.34437241 C38.4398463,8.55772068 37.6826716,7.8949037 36.6893738,7.35590159 C35.696076,6.81689948 34.4015516,6.54740247 32.8057617,6.54740247 C30.9820018,6.54740247 29.0280026,6.89702021 26.9437056,7.5962662 C24.8594086,8.29551218 22.6448762,9.38806764 20.3000421,10.8739654 C19.1601922,11.5440761 18.0366426,12.3161486 16.9293599,13.1902061 C15.8220771,14.0642636 14.7310942,14.9965776 13.6563786,15.987176 C12.5816629,17.0069098 11.5558134,18.0266282 10.5787991,19.0463619 C9.60178491,20.0660956 8.72248529,21.0858141 7.94087391,22.1055478 C7.12669539,23.067011 6.44279569,24.0138924 5.8891543,24.9462204 C5.56348289,25.4123844 5.17268306,25.9950806 4.71674309,26.6943266 C4.26080311,27.3935726 3.88628661,28.0054036 3.59318234,28.5298381 C1.9648253,31.5016336 0.955259074,34.1966037 0.564453383,36.6148294 C0.173647693,39.0913256 0.230639334,41.2181669 0.735430018,42.9954171 C1.2402207,44.7726673 2.04624535,46.2366916 3.15352814,47.3875339 C4.26081093,48.5383763 5.60418534,49.3905695 7.18369167,49.9441393 C8.76319801,50.497709 10.4648056,50.7744897 12.2885655,50.7744897 C14.8613696,50.7744897 17.2468769,50.5341275 19.4451589,50.0533959 C20.0730753,49.9160799 20.6850463,49.766879 21.2810734,49.6057926 C21.4996535,49.6298393 21.7310894,49.6418626 21.9753816,49.6418626 C22.7244258,49.6418626 23.6281504,49.3213797 24.6865825,48.6804042 C24.9632807,48.5128386 25.2433164,48.3333269 25.52669,48.1418687 C25.821188,48.0065273 26.0401597,47.8452579 26.1922029,47.6747259 C26.7835823,47.244351 27.3889844,46.7637954 28.0084142,46.2330555 C29.1645477,45.242457 30.3288056,44.1571853 31.5012226,42.9772077 C32.6736397,41.7972301 33.7483392,40.6755398 34.7253535,39.6121032 C35.7023677,38.5486666 36.5246757,37.6163526 37.192302,36.8151333 C37.8599284,36.0139139 38.2751533,35.496771 38.437989,35.263689 C38.6985261,34.914066 38.820651,34.6227179 38.8043675,34.3896359 C38.7880839,34.1565539 38.6985256,33.9963124 38.5356899,33.9089067 C38.3728542,33.8215009 38.1693126,33.8142172 37.9250591,33.8870554 C37.6808055,33.9598935 37.4772639,34.1128513 37.3144282,34.3459332 C36.2397126,35.8026957 34.9777548,37.2958548 33.528517,38.8254554 C32.0792792,40.355056 30.6707715,41.753527 29.3029516,43.0209103 C27.9351317,44.2882937 26.7057406,45.3298632 25.6147413,46.1456502 C25.570014,46.1790948 25.5259024,46.2118538 25.4824066,46.2439273 C25.2510121,46.2460302 24.9862992,46.3013732 24.6965841,46.4260755 C24.1116152,46.6778642 23.5079468,46.9129201 22.8855767,47.1312437 Z M18.7587239,48.2760257 C18.6578389,48.1543992 18.5657887,48.0269762 18.4825732,47.8937564 C18.1731853,47.3984572 17.9696437,46.8521795 17.8719423,46.2549068 C17.7742409,45.6576342 17.7253909,45.0967891 17.7253909,44.5723546 C17.7253909,44.0770554 17.9045075,43.3851036 18.2627461,42.4964785 C18.6209846,41.6078534 19.1094844,40.5881349 19.7282601,39.4372926 C20.3470357,38.2864503 21.0716438,37.0263696 21.9021059,35.6570129 C22.7325679,34.2876562 23.6037259,32.8673341 24.5156058,31.396004 C25.4274858,29.9246739 26.363777,28.4242311 27.3245077,26.8946305 C28.2852384,25.3650299 29.2215296,23.8718708 30.1334096,22.4151083 C29.2866639,22.4733788 28.4073643,22.5025136 27.4954843,22.5025136 L24.6621572,22.5025136 C23.2943373,22.5025136 22.1382212,22.3932581 21.1937741,22.1747437 C20.249327,21.9562294 19.4595857,21.6721649 18.8245264,21.3225419 C18.606385,21.2024472 18.4045756,21.0771967 18.2190977,20.9467899 C17.1819864,21.8690709 16.2310066,22.823454 15.3661449,23.8099513 C15.1056078,24.1013038 14.8613579,24.392652 14.6333879,24.6840045 C14.4054179,24.9753569 14.161168,25.2667051 13.9006309,25.5580576 C13.8029295,25.7037338 13.6808045,25.8785427 13.5342524,26.0824894 C13.3877003,26.2864362 13.224867,26.512231 13.0457477,26.7598806 C12.8666284,27.0075302 12.6875119,27.2478924 12.5083926,27.4809744 C12.3292733,27.7140564 12.1745817,27.9325675 12.0443131,28.1365142 C11.4255375,29.039707 10.8067711,29.9938721 10.1879954,30.9990382 C9.56921972,32.0042043 8.99116164,33.0312064 8.45380382,34.0800754 C7.91644599,35.1289443 7.44422953,36.1705139 7.03714027,37.2048152 C6.63005101,38.2391166 6.3450928,39.2078491 6.1822571,40.1110418 L6.08455616,41.0725002 C5.88915332,42.4709922 5.90543664,43.6582358 6.13340663,44.6342666 C6.36137662,45.6102975 6.76031811,46.4187885 7.33024307,47.059764 C7.90016804,47.7007395 8.60849273,48.1668965 9.45523839,48.458249 C10.3019841,48.7496015 11.246417,48.8952755 12.2885655,48.8952755 C14.6239274,48.8952755 16.7806273,48.6888609 18.7587239,48.2760257 Z M20.4703143,19.0920125 C21.6636848,19.5010353 23.093519,19.7055437 24.7598582,19.7055437 C26.2253795,19.7055437 27.5850373,19.6691252 28.8388722,19.5962871 C30.0927071,19.5234489 31.1429816,19.4433282 31.9897273,19.3559224 C33.2272787,17.2873197 34.2287032,15.466394 34.994031,13.8930905 C35.1886948,13.4929154 35.3586014,13.1200729 35.5037512,12.7745623 C35.1073353,12.5854958 34.6965125,12.4909636 34.2712757,12.4909636 C33.19656,12.4909636 31.8938939,12.7895954 30.3632383,13.386868 C28.8325827,13.9841406 27.0088501,14.8654687 24.891986,16.0308787 C24.3383446,16.3513664 23.6463032,16.7956723 22.8158411,17.3638097 C22.1372748,17.8280318 21.3554379,18.4040954 20.4703143,19.0920125 Z"></path>
    </g>
</svg>
